<?xml version="1.0" standalone="no"?>
<!DOCTYPE svg PUBLIC "-//W3C//DTD SVG 20010904//EN"
 "http://www.w3.org/TR/2001/REC-SVG-20010904/DTD/svg10.dtd">
<svg version="1.0" xmlns="http://www.w3.org/2000/svg"
 width="1895.000000pt" height="1023.000000pt" viewBox="0 0 1895.000000 1023.000000"
 preserveAspectRatio="xMidYMid meet">

<g transform="translate(0.000000,1023.000000) scale(0.100000,-0.100000)"
fill="#000000" stroke="none">
<path d="M1975 7070 c-304 -17 -493 -81 -678 -230 -181 -145 -298 -354 -343
-610 -18 -98 -19 -176 -19 -1120 0 -929 1 -1023 18 -1110 43 -230 132 -407
277 -550 163 -161 355 -248 621 -282 149 -19 1928 -19 2077 0 266 34 446 116
615 281 163 158 251 340 289 599 19 125 19 2009 0 2134 -38 259 -126 441 -289
599 -164 160 -343 243 -598 280 -95 13 -1752 21 -1970 9z m350 -509 c50 -11
119 -29 155 -40 230 -71 583 -72 812 -1 220 68 447 85 561 42 144 -53 275
-174 352 -324 71 -137 97 -250 98 -433 2 -306 -93 -597 -262 -807 -38 -46 -74
-94 -81 -108 -7 -13 -16 -88 -21 -176 -17 -309 -52 -507 -114 -641 -73 -159
-217 -344 -311 -399 -49 -29 -122 -41 -152 -25 -12 6 -31 30 -43 53 -26 52
-65 224 -79 353 -39 368 -136 611 -271 681 -79 40 -181 9 -252 -79 -88 -108
-131 -255 -187 -640 -43 -298 -76 -377 -158 -377 -123 0 -294 175 -411 420
-68 143 -106 338 -120 623 -5 95 -13 183 -19 197 -5 14 -38 59 -71 100 -145
177 -226 371 -266 635 -27 181 -14 358 40 514 75 220 245 391 445 446 71 19
230 13 355 -14z"/>
<path d="M9468 6306 c-53 -19 -82 -40 -115 -82 -22 -30 -28 -49 -31 -104 -7
-112 45 -184 156 -216 114 -34 240 12 289 105 27 51 31 133 9 184 -41 98 -193
154 -308 113z"/>
<path d="M10060 5290 l0 -920 190 0 190 0 0 920 0 920 -190 0 -190 0 0 -920z"/>
<path d="M5714 6115 c-251 -45 -426 -181 -485 -377 -17 -56 -21 -88 -17 -172
3 -91 7 -109 36 -168 57 -116 176 -203 357 -261 44 -15 161 -47 260 -72 187
-47 295 -90 321 -130 62 -94 17 -199 -105 -247 -48 -19 -76 -22 -201 -22 -127
0 -157 3 -244 27 -101 28 -242 89 -298 128 -17 13 -33 19 -35 13 -2 -5 -32
-72 -67 -149 -43 -95 -60 -144 -54 -152 5 -7 55 -35 111 -63 194 -96 473 -144
699 -122 149 16 214 33 323 87 183 90 282 232 293 420 12 218 -94 364 -328
454 -41 16 -176 54 -298 85 -223 56 -286 79 -330 120 -108 97 -35 251 136 287
68 14 228 14 302 -1 82 -16 180 -48 257 -85 37 -19 68 -33 69 -32 38 90 114
285 114 294 0 16 -126 76 -215 102 -170 50 -436 66 -601 36z"/>
<path d="M12965 6123 c-157 -25 -343 -105 -455 -196 -196 -159 -305 -381 -317
-642 -21 -462 257 -821 712 -921 108 -24 339 -23 450 0 164 36 300 106 416
214 l73 69 -74 69 c-41 38 -98 91 -127 117 l-52 49 -65 -56 c-150 -127 -321
-171 -511 -131 -241 51 -404 244 -421 502 -23 339 211 594 546 596 155 1 280
-46 385 -145 l61 -56 44 41 c25 23 83 77 129 120 l85 77 -45 46 c-98 101 -241
182 -394 224 -64 18 -113 23 -245 25 -91 2 -178 1 -195 -2z"/>
<path d="M7431 5700 c-80 -21 -141 -53 -208 -108 l-43 -34 0 71 0 71 -185 0
-185 0 0 -665 0 -665 190 0 190 0 0 343 c0 188 5 373 10 410 26 176 144 277
310 265 81 -6 138 -35 176 -89 51 -75 54 -100 54 -531 l0 -398 195 0 194 0 3
403 3 402 28 57 c54 109 156 166 282 156 106 -9 173 -58 212 -159 15 -39 18
-94 21 -451 l3 -408 190 0 190 0 -4 463 c-4 501 -4 504 -63 626 -36 73 -133
170 -206 204 -139 66 -339 75 -488 24 -80 -28 -194 -101 -234 -148 l-24 -29
-64 63 c-69 70 -140 108 -240 132 -87 20 -217 18 -307 -5z"/>
<path d="M11221 5710 c-270 -57 -472 -241 -538 -490 -12 -44 -17 -104 -17
-185 0 -135 20 -221 77 -330 42 -78 154 -191 242 -243 281 -165 720 -139 933
55 l53 48 -97 105 c-54 58 -101 106 -105 108 -4 2 -28 -13 -53 -32 -83 -63
-144 -80 -286 -81 -116 0 -129 2 -185 28 -33 15 -80 47 -104 70 -40 39 -91
125 -91 155 0 9 108 12 505 12 l505 0 0 100 c0 335 -161 563 -465 660 -79 25
-294 37 -374 20z m283 -301 c92 -34 174 -129 191 -222 l7 -37 -331 0 -331 0 6
28 c26 112 104 199 213 238 58 21 181 17 245 -7z"/>
<path d="M14449 5705 c-353 -73 -577 -362 -555 -713 20 -297 217 -533 513
-614 62 -17 106 -21 218 -21 123 0 151 4 230 27 120 36 224 96 304 177 126
126 181 254 189 440 9 220 -44 366 -188 509 -68 69 -102 94 -170 127 -47 23
-112 49 -145 58 -82 23 -309 29 -396 10z m271 -311 c98 -29 159 -80 207 -174
26 -52 28 -63 28 -180 0 -114 -2 -130 -26 -181 -33 -69 -89 -127 -155 -160
-70 -34 -197 -39 -275 -10 -79 30 -141 88 -181 169 -31 62 -33 73 -33 172 0
76 5 120 18 157 20 58 88 139 144 175 77 47 181 59 273 32z"/>
<path d="M16231 5705 c-90 -20 -182 -66 -241 -121 l-50 -47 0 82 0 81 -185 0
-185 0 0 -665 0 -665 189 0 189 0 4 368 c5 423 7 436 90 527 68 74 126 98 256
103 l102 4 0 174 0 174 -52 -1 c-29 0 -82 -7 -117 -14z"/>
<path d="M17214 5705 c-76 -16 -155 -55 -216 -107 l-48 -39 0 70 0 71 -185 0
-185 0 0 -905 0 -905 190 0 190 0 0 311 0 310 58 -45 c251 -197 687 -128 877
139 100 140 142 291 132 475 -8 129 -27 202 -80 305 -81 157 -249 284 -422
320 -86 18 -229 18 -311 0z m230 -328 c67 -31 127 -92 163 -165 26 -52 28 -66
28 -172 0 -103 -3 -121 -26 -171 -35 -73 -90 -134 -153 -167 -46 -24 -61 -27
-156 -27 -95 0 -110 3 -155 27 -67 35 -118 90 -152 163 -26 55 -28 70 -28 175
0 103 3 121 26 171 44 94 128 164 226 189 61 15 167 4 227 -23z"/>
<path d="M9360 5035 l0 -665 190 0 190 0 0 665 0 665 -190 0 -190 0 0 -665z"/>
</g>
</svg>
