<?xml version="1.0" standalone="no"?>
<!DOCTYPE svg PUBLIC "-//W3C//DTD SVG 20010904//EN"
 "http://www.w3.org/TR/2001/REC-SVG-20010904/DTD/svg10.dtd">
<svg version="1.0" xmlns="http://www.w3.org/2000/svg"
 width="1024.000000pt" height="1024.000000pt" viewBox="0 0 1024.000000 1024.000000"
 preserveAspectRatio="xMidYMid meet">

<g transform="translate(0.000000,1024.000000) scale(0.100000,-0.100000)"
fill="#000000" stroke="none">
<path d="M3060 10013 c-807 -22 -1267 -140 -1723 -443 -407 -270 -722 -658
-901 -1110 -110 -279 -166 -558 -198 -990 -19 -253 -19 -4433 0 -4695 46 -642
164 -1035 432 -1438 226 -341 524 -609 890 -800 332 -174 676 -259 1210 -299
253 -19 4433 -19 4695 0 642 46 1035 164 1438 432 341 226 609 524 800 890
174 332 259 676 299 1210 19 253 19 4433 0 4695 -46 642 -164 1035 -432 1438
-183 275 -401 493 -675 673 -333 219 -693 345 -1135 398 -313 38 -364 39
-2500 41 -1152 1 -2142 0 -2200 -2z m4352 -1252 c293 -79 544 -238 754 -479
182 -208 327 -486 398 -762 59 -232 71 -302 87 -520 15 -211 -5 -573 -41 -722
-6 -23 -24 -110 -40 -193 -97 -500 -344 -1012 -649 -1346 -133 -146 -159 -212
-171 -434 -31 -587 -57 -843 -119 -1190 -56 -307 -126 -517 -249 -740 -278
-506 -558 -812 -828 -905 -68 -24 -198 -27 -247 -6 -95 39 -168 212 -237 552
-21 110 -51 300 -65 424 -13 124 -27 236 -30 250 -3 14 -16 93 -30 177 -28
172 -30 182 -85 403 -128 518 -319 816 -595 929 -48 20 -78 25 -145 25 -97 0
-165 -23 -263 -88 -234 -155 -373 -429 -512 -1006 -18 -76 -29 -132 -50 -263
-14 -84 -27 -163 -30 -177 -3 -14 -17 -126 -31 -250 -52 -462 -143 -814 -240
-930 -39 -45 -80 -60 -172 -60 -294 0 -627 317 -951 903 -136 245 -204 444
-262 762 -62 347 -88 603 -119 1190 -12 222 -38 288 -171 434 -305 334 -552
846 -649 1346 -16 83 -34 170 -40 193 -36 149 -56 511 -41 722 16 218 28 288
87 520 164 641 656 1148 1220 1256 98 18 395 18 529 0 228 -32 411 -72 625
-136 184 -56 236 -68 392 -96 320 -56 598 -73 903 -55 203 13 218 14 453 55
156 28 207 40 392 96 193 59 309 85 585 132 177 30 505 24 637 -11z"/>
</g>
</svg>
